<svg width="20" height="20" viewBox="0 0 20 20" fill="none" xmlns="http://www.w3.org/2000/svg">
<circle cx="10" cy="10" r="10" fill="#A5ACB3"/>
<path d="M14.6668 15.25V14.0833C14.6668 13.4645 14.421 12.871 13.9834 12.4334C13.5458 11.9958 12.9523 11.75 12.3335 11.75H7.66683C7.04799 11.75 6.4545 11.9958 6.01691 12.4334C5.57933 12.871 5.3335 13.4645 5.3335 14.0833V15.25C8.50024 18 11.5002 18 14.6668 15.25Z" fill="white" stroke="white" stroke-width="1.7" stroke-linecap="round" stroke-linejoin="round"/>
<path d="M9.99984 9.41667C11.2885 9.41667 12.3332 8.372 12.3332 7.08333C12.3332 5.79467 11.2885 4.75 9.99984 4.75C8.71117 4.75 7.6665 5.79467 7.6665 7.08333C7.6665 8.372 8.71117 9.41667 9.99984 9.41667Z" fill="white" stroke="white" stroke-width="1.7" stroke-linecap="round" stroke-linejoin="round"/>
</svg>
