<svg width="18" height="18" viewBox="0 0 18 18" fill="none" xmlns="http://www.w3.org/2000/svg">
<path d="M10.791 4.36696C11.4924 4.50354 12.137 4.84592 12.6424 5.35028C13.1477 5.85463 13.4907 6.49801 13.6276 7.19808M10.791 1.5C12.2483 1.66158 13.6072 2.31291 14.6446 3.34704C15.682 4.38118 16.3363 5.73665 16.5 7.19091M15.7819 12.9105V15.0607C15.7827 15.2603 15.7417 15.4579 15.6616 15.6408C15.5815 15.8237 15.464 15.9879 15.3166 16.1228C15.1692 16.2578 14.9952 16.3605 14.8058 16.4244C14.6163 16.4884 14.4156 16.5121 14.2164 16.4942C12.0067 16.2545 9.88404 15.5009 8.0191 14.2938C6.28402 13.1934 4.81297 11.7251 3.71043 9.99336C2.49681 8.12353 1.74154 5.99467 1.50583 3.77923C1.48788 3.58103 1.51148 3.38127 1.57513 3.19267C1.63877 3.00407 1.74106 2.83076 1.87549 2.68378C2.00992 2.5368 2.17353 2.41937 2.35592 2.33896C2.53831 2.25855 2.73548 2.21693 2.93487 2.21674H5.08921C5.43771 2.21332 5.77557 2.33649 6.03981 2.56331C6.30406 2.79012 6.47665 3.1051 6.52543 3.44953C6.61636 4.13765 6.78499 4.81329 7.02811 5.46357C7.12472 5.72011 7.14564 5.99891 7.08836 6.26695C7.03109 6.53498 6.89803 6.78101 6.70496 6.97589L5.79296 7.88614C6.81523 9.68053 8.3038 11.1663 10.1016 12.1866L11.0136 11.2763C11.2089 11.0836 11.4554 10.9508 11.7239 10.8936C11.9925 10.8365 12.2718 10.8574 12.5288 10.9538C13.1804 11.1964 13.8573 11.3648 14.5467 11.4555C14.8956 11.5046 15.2142 11.68 15.4419 11.9483C15.6696 12.2165 15.7906 12.559 15.7819 12.9105Z" stroke="#2C2C2C" stroke-width="1.5" stroke-linecap="round" stroke-linejoin="round"/>
</svg>
