<svg width="60" height="56" viewBox="0 0 60 56" fill="none" xmlns="http://www.w3.org/2000/svg">
<path d="M60 0H0V56H60V0Z" fill="#BA0C2F"/>
<path d="M13.4907 23.953V22.0118C13.4907 21.0962 13.2312 20.8765 12.7124 20.8765C12.1936 20.8765 11.9341 21.0962 11.9341 22.0118V24.246C11.9341 25.5645 16.0107 29.1538 16.0107 30.985V34.2081C16.0107 36.5887 14.2689 37.2846 12.7124 37.2846C11.1559 37.2846 9.41406 36.5887 9.41406 34.2081V33.2192L11.9341 31.7542V33.9883C11.9341 34.9039 12.1936 35.1237 12.7124 35.1237C13.1942 35.1237 13.4907 34.9039 13.4907 33.9883V32.0838C13.4907 29.52 9.41406 27.3591 9.41406 24.3925V21.7921C9.41406 19.4115 11.1559 18.7156 12.7124 18.7156C14.2689 18.7156 16.0107 19.4115 16.0107 21.7921V22.4514L13.4907 23.953Z" fill="white"/>
<path d="M30.3885 34.8307H32.4268L33.1309 37.2846H27.8684V18.7156H30.3885V34.8307Z" fill="white"/>
<path d="M50.5865 18.7156V21.1695H48.1776V37.2846H45.6576V21.1695H43.434L43.1746 18.7156H50.5865V18.7156Z" fill="white"/>
<path d="M40.6176 18.7156H36.8375L34.9104 37.2846H37.2081L37.764 32.3402H39.5429L40.0247 37.2846H42.5818L40.6176 18.7156ZM37.9864 29.8863L38.5423 23.074H38.8388L39.2835 29.8863H37.9864Z" fill="white"/>
<path d="M21.2724 18.7156H18.6411V37.2846H21.1612V20.9497C22.1989 20.9497 22.7177 20.9863 22.7177 22.7444V27.176C22.7177 27.762 22.1989 27.9451 21.6059 28.0184L22.1989 30.2159C24.2001 29.9962 25.2378 29.0805 25.2378 26.4435V22.3415C25.2007 19.851 24.0519 18.7156 21.2724 18.7156Z" fill="white"/>
<path d="M51.2891 16.4812V14.7598H52.0673C52.2156 14.7598 52.3267 14.7598 52.4379 14.7964L52.6232 14.9429C52.6603 15.0161 52.6973 15.0894 52.6973 15.1993C52.6973 15.3091 52.6603 15.419 52.5862 15.4923C52.512 15.5655 52.4009 15.6388 52.2156 15.6388L52.3638 15.712C52.4379 15.7853 52.475 15.8585 52.5491 15.9318L52.8456 16.4079H52.5491L52.3267 16.0417C52.2526 15.9318 52.2156 15.8585 52.1785 15.8219L52.0673 15.712L51.9561 15.6754H51.845H51.5114V16.4812H51.2891ZM51.5114 15.5289H51.9932C52.1044 15.5289 52.1785 15.5289 52.2526 15.4923L52.4009 15.3824L52.4379 15.2359L52.3267 15.0528C52.2897 15.0161 52.1785 14.9795 52.0303 14.9795H51.5114V15.5289Z" fill="white"/>
<path d="M50.3264 15.6755C50.3264 16.5545 51.0676 17.287 51.9941 17.287C52.8836 17.287 53.6248 16.5545 53.6248 15.6755C53.6248 14.7965 52.8836 14.064 51.9941 14.064C51.0676 14.064 50.3264 14.7965 50.3264 15.6755ZM50.5117 15.6755C50.5117 14.8697 51.1788 14.2471 51.9571 14.2471C52.7353 14.2471 53.4024 14.8697 53.4024 15.6755C53.4024 16.4446 52.7724 17.1039 51.9571 17.1039C51.1788 17.1039 50.5117 16.4812 50.5117 15.6755Z" fill="white"/>
</svg>
