<svg width="20" height="20" viewBox="0 0 20 20" fill="none" xmlns="http://www.w3.org/2000/svg">
<path d="M2.5 2.5H4.54545L5.26515 6.11111M5.26515 6.11111L6.35299 10.9396C6.55853 11.8519 7.36888 12.5 8.30408 12.5H14.4611C15.3963 12.5 16.2066 11.8519 16.4122 10.9396L17.5 6.11111H5.26515Z" stroke="#2C2C2C" stroke-width="1.5" stroke-linecap="round" stroke-linejoin="round"/>
<mask id="path-2-inside-1" fill="white">
<ellipse cx="8.33317" cy="16.6667" rx="1.66667" ry="1.66667"/>
</mask>
<ellipse cx="8.33317" cy="16.6667" rx="1.66667" ry="1.66667" fill="#2C2C2C"/>
<path d="M7.99984 16.6667C7.99984 16.4826 8.14907 16.3333 8.33317 16.3333V20.3333C10.3582 20.3333 11.9998 18.6917 11.9998 16.6667H7.99984ZM8.33317 16.3333C8.51727 16.3333 8.6665 16.4826 8.6665 16.6667H4.6665C4.6665 18.6917 6.30813 20.3333 8.33317 20.3333V16.3333ZM8.6665 16.6667C8.6665 16.8508 8.51727 17 8.33317 17V13C6.30813 13 4.6665 14.6416 4.6665 16.6667H8.6665ZM8.33317 17C8.14907 17 7.99984 16.8508 7.99984 16.6667H11.9998C11.9998 14.6416 10.3582 13 8.33317 13V17Z" fill="#2C2C2C" mask="url(#path-2-inside-1)"/>
<mask id="path-4-inside-2" fill="white">
<ellipse cx="15.0002" cy="16.6667" rx="1.66667" ry="1.66667"/>
</mask>
<ellipse cx="15.0002" cy="16.6667" rx="1.66667" ry="1.66667" fill="#2C2C2C"/>
<path d="M14.6668 16.6667C14.6668 16.4826 14.8161 16.3333 15.0002 16.3333V20.3333C17.0252 20.3333 18.6668 18.6917 18.6668 16.6667H14.6668ZM15.0002 16.3333C15.1843 16.3333 15.3335 16.4826 15.3335 16.6667H11.3335C11.3335 18.6917 12.9751 20.3333 15.0002 20.3333V16.3333ZM15.3335 16.6667C15.3335 16.8508 15.1843 17 15.0002 17V13C12.9751 13 11.3335 14.6416 11.3335 16.6667H15.3335ZM15.0002 17C14.8161 17 14.6668 16.8508 14.6668 16.6667H18.6668C18.6668 14.6416 17.0252 13 15.0002 13V17Z" fill="#2C2C2C" mask="url(#path-4-inside-2)"/>
</svg>
